<svg xmlns="http://www.w3.org/2000/svg" width="1920" height="1080"><path d="M464,1305L198,1311L1040,1323Z" fill="#627d9d" stroke="#627d9d" stroke-width="1.51"/><path d="M198,1311L44,1318L1040,1323Z" fill="#6c819f" stroke="#6c819f" stroke-width="1.51"/><path d="M660,-239L1028,-217L1307,-228Z" fill="#b7cce3" stroke="#b7cce3" stroke-width="1.51"/><path d="M1189,1305L1040,1323L1722,1300Z" fill="#1a638e" stroke="#1a638e" stroke-width="1.51"/><path d="M1470,1253L1189,1305L1722,1300Z" fill="#105e8e" stroke="#105e8e" stroke-width="1.51"/><path d="M660,-239L1307,-228L1923,-253Z" fill="#a3bfdc" stroke="#a3bfdc" stroke-width="1.51"/><path d="M1307,-228L1613,-188L1923,-253Z" fill="#97add2" stroke="#97add2" stroke-width="1.51"/><path d="M1942,-41L1952,27L2098,-115Z" fill="#8294b2" stroke="#8294b2" stroke-width="1.51"/><path d="M1984,1313L1722,1300L2105,1326Z" fill="#034871" stroke="#034871" stroke-width="1.51"/><path d="M1722,1300L1040,1323L2105,1326Z" fill="#035484" stroke="#035484" stroke-width="1.51"/><path d="M2006,1149L2094,1181L2119,1003Z" fill="#04507e" stroke="#04507e" stroke-width="1.51"/><path d="M2094,1181L2105,1326L2119,1003Z" fill="#034a75" stroke="#034a75" stroke-width="1.51"/><path d="M2063,490L2115,638L2124,370Z" fill="#477499" stroke="#477499" stroke-width="1.51"/><path d="M2098,-115L1952,27L2140,76Z" fill="#7d8eab" stroke="#7d8eab" stroke-width="1.51"/><path d="M2083,213L2124,370L2140,76Z" fill="#68809f" stroke="#68809f" stroke-width="1.51"/><path d="M2102,-217L2098,-115L2140,76Z" fill="#808fa8" stroke="#808fa8" stroke-width="1.51"/><path d="M1975,833L2069,910L2152,748Z" fill="#156291" stroke="#156291" stroke-width="1.51"/><path d="M1987,727L1975,833L2152,748Z" fill="#1c6896" stroke="#1c6896" stroke-width="1.51"/><path d="M2115,638L2007,657L2152,748Z" fill="#2a6b94" stroke="#2a6b94" stroke-width="1.51"/><path d="M2007,657L1987,727L2152,748Z" fill="#266c97" stroke="#266c97" stroke-width="1.51"/><path d="M2069,910L2119,1003L2152,748Z" fill="#0d5b8a" stroke="#0d5b8a" stroke-width="1.51"/><path d="M2119,1003L2105,1326L2152,748Z" fill="#035280" stroke="#035280" stroke-width="1.51"/><path d="M2124,370L2115,638L2152,748Z" fill="#396e94" stroke="#396e94" stroke-width="1.51"/><path d="M2140,76L2124,370L2152,748Z" fill="#537698" stroke="#537698" stroke-width="1.51"/><path d="M2063,490L2015,512L2115,638Z" fill="#41749c" stroke="#41749c" stroke-width="1.51"/><path d="M1958,1035L2006,1149L2119,1003Z" fill="#045586" stroke="#045586" stroke-width="1.51"/><path d="M2083,213L1985,376L2124,370Z" fill="#5f7fa2" stroke="#5f7fa2" stroke-width="1.51"/><path d="M1952,27L2083,213L2140,76Z" fill="#7589a8" stroke="#7589a8" stroke-width="1.51"/><path d="M1613,-188L1691,-183L1923,-253Z" fill="#93a7ca" stroke="#93a7ca" stroke-width="1.51"/><path d="M1952,27L1939,207L2083,213Z" fill="#758bad" stroke="#758bad" stroke-width="1.51"/><path d="M2094,1181L1984,1313L2105,1326Z" fill="#03446b" stroke="#03446b" stroke-width="1.51"/><path d="M2015,512L2007,657L2115,638Z" fill="#39729b" stroke="#39729b" stroke-width="1.51"/><path d="M1985,376L2063,490L2124,370Z" fill="#547ba0" stroke="#547ba0" stroke-width="1.51"/><path d="M2069,910L1958,1035L2119,1003Z" fill="#04598b" stroke="#04598b" stroke-width="1.51"/><path d="M1939,207L1985,376L2083,213Z" fill="#6785a9" stroke="#6785a9" stroke-width="1.51"/><path d="M2006,1149L1984,1313L2094,1181Z" fill="#034b76" stroke="#034b76" stroke-width="1.51"/><path d="M1923,-253L2098,-115L2102,-217Z" fill="#8897b1" stroke="#8897b1" stroke-width="1.51"/><path d="M1923,-253L1942,-41L2098,-115Z" fill="#8798b5" stroke="#8798b5" stroke-width="1.51"/><path d="M1691,-183L1816,-200L1923,-253Z" fill="#92a5c5" stroke="#92a5c5" stroke-width="1.51"/><path d="M1985,376L2015,512L2063,490Z" fill="#4f7ba2" stroke="#4f7ba2" stroke-width="1.51"/><path d="M1975,833L1958,1035L2069,910Z" fill="#085f93" stroke="#085f93" stroke-width="1.51"/><path d="M1923,-253L1864,-83L1942,-41Z" fill="#8a9dbc" stroke="#8a9dbc" stroke-width="1.51"/><path d="M1858,917L1958,1035L1975,833Z" fill="#086399" stroke="#086399" stroke-width="1.51"/><path d="M1939,207L1862,333L1985,376Z" fill="#6687af" stroke="#6687af" stroke-width="1.51"/><path d="M1811,1241L1984,1313L2006,1149Z" fill="#034f7c" stroke="#034f7c" stroke-width="1.51"/><path d="M1985,376L1851,500L2015,512Z" fill="#507fa9" stroke="#507fa9" stroke-width="1.51"/><path d="M1870,623L2007,657L2015,512Z" fill="#3c77a3" stroke="#3c77a3" stroke-width="1.51"/><path d="M1851,500L1870,623L2015,512Z" fill="#467daa" stroke="#467daa" stroke-width="1.51"/><path d="M1829,68L1939,207L1952,27Z" fill="#7c93b7" stroke="#7c93b7" stroke-width="1.51"/><path d="M1794,1190L1811,1241L2006,1149Z" fill="#035687" stroke="#035687" stroke-width="1.51"/><path d="M1958,1035L1866,1051L2006,1149Z" fill="#03598c" stroke="#03598c" stroke-width="1.51"/><path d="M1870,623L1987,727L2007,657Z" fill="#3073a1" stroke="#3073a1" stroke-width="1.51"/><path d="M1811,1241L1722,1300L1984,1313Z" fill="#044f7d" stroke="#044f7d" stroke-width="1.51"/><path d="M1866,1051L1794,1190L2006,1149Z" fill="#045a8d" stroke="#045a8d" stroke-width="1.51"/><path d="M1816,-200L1864,-83L1923,-253Z" fill="#8ea1c1" stroke="#8ea1c1" stroke-width="1.51"/><path d="M1862,333L1851,500L1985,376Z" fill="#5b85af" stroke="#5b85af" stroke-width="1.51"/><path d="M1810,747L1975,833L1987,727Z" fill="#1e6fa0" stroke="#1e6fa0" stroke-width="1.51"/><path d="M1870,623L1810,747L1987,727Z" fill="#2b76a6" stroke="#2b76a6" stroke-width="1.51"/><path d="M1829,68L1803,151L1939,207Z" fill="#7b93ba" stroke="#7b93ba" stroke-width="1.51"/><path d="M1858,917L1866,1051L1958,1035Z" fill="#046097" stroke="#046097" stroke-width="1.51"/><path d="M1810,747L1858,917L1975,833Z" fill="#186da2" stroke="#186da2" stroke-width="1.51"/><path d="M1864,-83L1829,68L1942,-41Z" fill="#859abd" stroke="#859abd" stroke-width="1.51"/><path d="M1942,-41L1829,68L1952,27Z" fill="#8197b9" stroke="#8197b9" stroke-width="1.51"/><path d="M1803,151L1862,333L1939,207Z" fill="#708fb6" stroke="#708fb6" stroke-width="1.51"/><path d="M1583,1252L1470,1253L1722,1300Z" fill="#04598c" stroke="#04598c" stroke-width="1.51"/><path d="M1743,321L1697,483L1851,500Z" fill="#5989b7" stroke="#5989b7" stroke-width="1.51"/><path d="M1810,747L1700,846L1858,917Z" fill="#1870a7" stroke="#1870a7" stroke-width="1.51"/><path d="M1743,321L1851,500L1862,333Z" fill="#5f8ab5" stroke="#5f8ab5" stroke-width="1.51"/><path d="M1803,151L1743,321L1862,333Z" fill="#6e90ba" stroke="#6e90ba" stroke-width="1.51"/><path d="M1712,-114L1829,68L1864,-83Z" fill="#899fc2" stroke="#899fc2" stroke-width="1.51"/><path d="M1816,-200L1712,-114L1864,-83Z" fill="#8ea2c4" stroke="#8ea2c4" stroke-width="1.51"/><path d="M1858,917L1679,1062L1866,1051Z" fill="#04649d" stroke="#04649d" stroke-width="1.51"/><path d="M1679,1062L1794,1190L1866,1051Z" fill="#046096" stroke="#046096" stroke-width="1.51"/><path d="M1851,500L1740,642L1870,623Z" fill="#4080af" stroke="#4080af" stroke-width="1.51"/><path d="M1740,642L1810,747L1870,623Z" fill="#327bac" stroke="#327bac" stroke-width="1.51"/><path d="M1712,-114L1720,90L1829,68Z" fill="#869ec3" stroke="#869ec3" stroke-width="1.51"/><path d="M1697,483L1740,642L1851,500Z" fill="#4985b4" stroke="#4985b4" stroke-width="1.51"/><path d="M1700,846L1679,1062L1858,917Z" fill="#056aa5" stroke="#056aa5" stroke-width="1.51"/><path d="M1679,1062L1659,1125L1794,1190Z" fill="#046198" stroke="#046198" stroke-width="1.51"/><path d="M1667,222L1743,321L1803,151Z" fill="#7394be" stroke="#7394be" stroke-width="1.51"/><path d="M1720,90L1803,151L1829,68Z" fill="#7f98bf" stroke="#7f98bf" stroke-width="1.51"/><path d="M1691,-183L1712,-114L1816,-200Z" fill="#91a6c9" stroke="#91a6c9" stroke-width="1.51"/><path d="M1740,642L1654,738L1810,747Z" fill="#2b7caf" stroke="#2b7caf" stroke-width="1.51"/><path d="M1654,738L1700,846L1810,747Z" fill="#2077ad" stroke="#2077ad" stroke-width="1.51"/><path d="M1794,1190L1722,1300L1811,1241Z" fill="#045585" stroke="#045585" stroke-width="1.51"/><path d="M1720,90L1667,222L1803,151Z" fill="#7c98c1" stroke="#7c98c1" stroke-width="1.51"/><path d="M1659,1125L1722,1300L1794,1190Z" fill="#035a8e" stroke="#035a8e" stroke-width="1.51"/><path d="M1604,1042L1679,1062L1700,846Z" fill="#056aa7" stroke="#056aa7" stroke-width="1.51"/><path d="M1573,847L1604,1042L1700,846Z" fill="#0d70ae" stroke="#0d70ae" stroke-width="1.51"/><path d="M1712,-114L1595,-92L1720,90Z" fill="#8ca4c9" stroke="#8ca4c9" stroke-width="1.51"/><path d="M1595,-92L1549,96L1720,90Z" fill="#88a2cb" stroke="#88a2cb" stroke-width="1.51"/><path d="M1659,1125L1583,1252L1722,1300Z" fill="#045b8f" stroke="#045b8f" stroke-width="1.51"/><path d="M1697,483L1614,578L1740,642Z" fill="#4686b7" stroke="#4686b7" stroke-width="1.51"/><path d="M1566,350L1697,483L1743,321Z" fill="#628fbe" stroke="#628fbe" stroke-width="1.51"/><path d="M1667,222L1566,350L1743,321Z" fill="#6d94c1" stroke="#6d94c1" stroke-width="1.51"/><path d="M1596,712L1654,738L1740,642Z" fill="#2f7fb4" stroke="#2f7fb4" stroke-width="1.51"/><path d="M1614,578L1596,712L1740,642Z" fill="#3a83b6" stroke="#3a83b6" stroke-width="1.51"/><path d="M1307,-228L1481,-153L1613,-188Z" fill="#9ab3d6" stroke="#9ab3d6" stroke-width="1.51"/><path d="M1549,96L1667,222L1720,90Z" fill="#809cc6" stroke="#809cc6" stroke-width="1.51"/><path d="M1691,-183L1613,-188L1712,-114Z" fill="#93a8cd" stroke="#93a8cd" stroke-width="1.51"/><path d="M1613,-188L1595,-92L1712,-114Z" fill="#92a9ce" stroke="#92a9ce" stroke-width="1.51"/><path d="M1563,521L1614,578L1697,483Z" fill="#4d8abc" stroke="#4d8abc" stroke-width="1.51"/><path d="M1566,350L1563,521L1697,483Z" fill="#598fbf" stroke="#598fbf" stroke-width="1.51"/><path d="M1654,738L1573,847L1700,846Z" fill="#1c78b1" stroke="#1c78b1" stroke-width="1.51"/><path d="M-21,-229L436,-198L660,-239Z" fill="#e4e2ef" stroke="#e4e2ef" stroke-width="1.51"/><path d="M1537,221L1566,350L1667,222Z" fill="#7298c6" stroke="#7298c6" stroke-width="1.51"/><path d="M1549,96L1537,221L1667,222Z" fill="#7c9cc9" stroke="#7c9cc9" stroke-width="1.51"/><path d="M1610,1097L1659,1125L1679,1062Z" fill="#04659e" stroke="#04659e" stroke-width="1.51"/><path d="M1604,1042L1610,1097L1679,1062Z" fill="#0467a2" stroke="#0467a2" stroke-width="1.51"/><path d="M1596,712L1573,847L1654,738Z" fill="#217cb4" stroke="#217cb4" stroke-width="1.51"/><path d="M1610,1097L1583,1252L1659,1125Z" fill="#05629a" stroke="#05629a" stroke-width="1.51"/><path d="M1419,426L1563,521L1566,350Z" fill="#5f94c4" stroke="#5f94c4" stroke-width="1.51"/><path d="M1454,829L1410,1015L1573,847Z" fill="#1a78b5" stroke="#1a78b5" stroke-width="1.51"/><path d="M1435,1131L1470,1253L1583,1252Z" fill="#0d6398" stroke="#0d6398" stroke-width="1.51"/><path d="M1408,-41L1549,96L1595,-92Z" fill="#8ea9d1" stroke="#8ea9d1" stroke-width="1.51"/><path d="M1454,829L1573,847L1596,712Z" fill="#207db7" stroke="#207db7" stroke-width="1.51"/><path d="M1573,847L1410,1015L1604,1042Z" fill="#0c70af" stroke="#0c70af" stroke-width="1.51"/><path d="M1435,1131L1583,1252L1610,1097Z" fill="#08659d" stroke="#08659d" stroke-width="1.51"/><path d="M1481,-153L1595,-92L1613,-188Z" fill="#94acd3" stroke="#94acd3" stroke-width="1.51"/><path d="M1399,569L1596,712L1614,578Z" fill="#4189be" stroke="#4189be" stroke-width="1.51"/><path d="M1563,521L1399,569L1614,578Z" fill="#4c8dc0" stroke="#4c8dc0" stroke-width="1.51"/><path d="M1399,569L1399,735L1596,712Z" fill="#3a8abd" stroke="#3a8abd" stroke-width="1.51"/><path d="M1604,1042L1435,1131L1610,1097Z" fill="#0769a4" stroke="#0769a4" stroke-width="1.51"/><path d="M1408,-41L1473,102L1549,96Z" fill="#8ba8d0" stroke="#8ba8d0" stroke-width="1.51"/><path d="M1410,1015L1435,1131L1604,1042Z" fill="#106ea7" stroke="#106ea7" stroke-width="1.51"/><path d="M1294,1239L1189,1305L1470,1253Z" fill="#1b6795" stroke="#1b6795" stroke-width="1.51"/><path d="M1481,-153L1408,-41L1595,-92Z" fill="#95afd4" stroke="#95afd4" stroke-width="1.51"/><path d="M1399,735L1454,829L1596,712Z" fill="#2883ba" stroke="#2883ba" stroke-width="1.51"/><path d="M1462,180L1537,221L1549,96Z" fill="#81a0cc" stroke="#81a0cc" stroke-width="1.51"/><path d="M1473,102L1462,180L1549,96Z" fill="#85a4ce" stroke="#85a4ce" stroke-width="1.51"/><path d="M1537,221L1401,329L1566,350Z" fill="#719bc8" stroke="#719bc8" stroke-width="1.51"/><path d="M1401,329L1419,426L1566,350Z" fill="#6a9ac8" stroke="#6a9ac8" stroke-width="1.51"/><path d="M1419,426L1399,569L1563,521Z" fill="#5693c4" stroke="#5693c4" stroke-width="1.51"/><path d="M1462,180L1401,329L1537,221Z" fill="#799fcb" stroke="#799fcb" stroke-width="1.51"/><path d="M1331,963L1410,1015L1454,829Z" fill="#1c79b5" stroke="#1c79b5" stroke-width="1.51"/><path d="M1408,-41L1345,30L1473,102Z" fill="#8fadd2" stroke="#8fadd2" stroke-width="1.51"/><path d="M1307,-228L1408,-41L1481,-153Z" fill="#9bb6d7" stroke="#9bb6d7" stroke-width="1.51"/><path d="M1028,-217L1137,-191L1307,-228Z" fill="#abc5df" stroke="#abc5df" stroke-width="1.51"/><path d="M1311,632L1399,735L1399,569Z" fill="#4390c1" stroke="#4390c1" stroke-width="1.51"/><path d="M1278,207L1401,329L1462,180Z" fill="#7da5cd" stroke="#7da5cd" stroke-width="1.51"/><path d="M1435,1131L1302,1168L1470,1253Z" fill="#176a9e" stroke="#176a9e" stroke-width="1.51"/><path d="M1302,1168L1294,1239L1470,1253Z" fill="#19699a" stroke="#19699a" stroke-width="1.51"/><path d="M1345,30L1462,180L1473,102Z" fill="#89a8d0" stroke="#89a8d0" stroke-width="1.51"/><path d="M1345,30L1278,207L1462,180Z" fill="#89abd1" stroke="#89abd1" stroke-width="1.51"/><path d="M573,1272L464,1305L1040,1323Z" fill="#597b9e" stroke="#597b9e" stroke-width="1.51"/><path d="M1307,-228L1293,-48L1408,-41Z" fill="#9bb8d8" stroke="#9bb8d8" stroke-width="1.51"/><path d="M1280,879L1331,963L1454,829Z" fill="#247fb8" stroke="#247fb8" stroke-width="1.51"/><path d="M1399,735L1345,749L1454,829Z" fill="#2d86bb" stroke="#2d86bb" stroke-width="1.51"/><path d="M1345,749L1280,879L1454,829Z" fill="#2b85bb" stroke="#2b85bb" stroke-width="1.51"/><path d="M1289,421L1399,569L1419,426Z" fill="#5f9ac7" stroke="#5f9ac7" stroke-width="1.51"/><path d="M1410,1015L1302,1168L1435,1131Z" fill="#1a71a7" stroke="#1a71a7" stroke-width="1.51"/><path d="M1311,632L1345,749L1399,735Z" fill="#398ebf" stroke="#398ebf" stroke-width="1.51"/><path d="M1278,207L1285,332L1401,329Z" fill="#79a6ce" stroke="#79a6ce" stroke-width="1.51"/><path d="M1331,963L1302,1168L1410,1015Z" fill="#1d76ad" stroke="#1d76ad" stroke-width="1.51"/><path d="M1401,329L1289,421L1419,426Z" fill="#6a9ec9" stroke="#6a9ec9" stroke-width="1.51"/><path d="M1285,332L1289,421L1401,329Z" fill="#70a2cc" stroke="#70a2cc" stroke-width="1.51"/><path d="M1293,-48L1345,30L1408,-41Z" fill="#95b3d6" stroke="#95b3d6" stroke-width="1.51"/><path d="M1289,421L1311,632L1399,569Z" fill="#5699c5" stroke="#5699c5" stroke-width="1.51"/><path d="M660,-239L764,-204L1028,-217Z" fill="#c4d2e7" stroke="#c4d2e7" stroke-width="1.51"/><path d="M1183,962L1209,1175L1302,1168Z" fill="#2878ab" stroke="#2878ab" stroke-width="1.51"/><path d="M1141,-98L1293,-48L1307,-228Z" fill="#a0bddb" stroke="#a0bddb" stroke-width="1.51"/><path d="M1289,421L1143,573L1311,632Z" fill="#599dc8" stroke="#599dc8" stroke-width="1.51"/><path d="M1183,962L1302,1168L1331,963Z" fill="#237bb0" stroke="#237bb0" stroke-width="1.51"/><path d="M1311,632L1126,756L1345,749Z" fill="#3d92c1" stroke="#3d92c1" stroke-width="1.51"/><path d="M1126,756L1280,879L1345,749Z" fill="#348cbf" stroke="#348cbf" stroke-width="1.51"/><path d="M1293,-48L1207,85L1345,30Z" fill="#95b5d6" stroke="#95b5d6" stroke-width="1.51"/><path d="M1207,85L1278,207L1345,30Z" fill="#8fb1d4" stroke="#8fb1d4" stroke-width="1.51"/><path d="M1126,756L1139,836L1280,879Z" fill="#3b8dbf" stroke="#3b8dbf" stroke-width="1.51"/><path d="M1155,443L1143,573L1289,421Z" fill="#68a2cb" stroke="#68a2cb" stroke-width="1.51"/><path d="M1137,-191L1141,-98L1307,-228Z" fill="#a6c2dd" stroke="#a6c2dd" stroke-width="1.51"/><path d="M1280,879L1183,962L1331,963Z" fill="#2581b9" stroke="#2581b9" stroke-width="1.51"/><path d="M802,1247L573,1272L1040,1323Z" fill="#50799e" stroke="#50799e" stroke-width="1.51"/><path d="M1209,1175L1294,1239L1302,1168Z" fill="#20709f" stroke="#20709f" stroke-width="1.51"/><path d="M1143,573L1126,756L1311,632Z" fill="#4f98c5" stroke="#4f98c5" stroke-width="1.51"/><path d="M1278,207L1138,300L1285,332Z" fill="#7faad0" stroke="#7faad0" stroke-width="1.51"/><path d="M1285,332L1155,443L1289,421Z" fill="#6fa4cc" stroke="#6fa4cc" stroke-width="1.51"/><path d="M1141,-98L1207,85L1293,-48Z" fill="#9cbad9" stroke="#9cbad9" stroke-width="1.51"/><path d="M1209,1175L1189,1305L1294,1239Z" fill="#246d9a" stroke="#246d9a" stroke-width="1.51"/><path d="M1207,85L1130,161L1278,207Z" fill="#90b2d4" stroke="#90b2d4" stroke-width="1.51"/><path d="M1138,300L1155,443L1285,332Z" fill="#79a8cf" stroke="#79a8cf" stroke-width="1.51"/><path d="M1183,962L1066,1046L1209,1175Z" fill="#337db0" stroke="#337db0" stroke-width="1.51"/><path d="M1130,161L1138,300L1278,207Z" fill="#89afd3" stroke="#89afd3" stroke-width="1.51"/><path d="M1139,836L1183,962L1280,879Z" fill="#3386bc" stroke="#3386bc" stroke-width="1.51"/><path d="M764,-204L842,-186L1028,-217Z" fill="#bfcfe5" stroke="#bfcfe5" stroke-width="1.51"/><path d="M1009,-67L1054,112L1141,-98Z" fill="#a7c1dd" stroke="#a7c1dd" stroke-width="1.51"/><path d="M1141,-98L1054,112L1207,85Z" fill="#9ebbd9" stroke="#9ebbd9" stroke-width="1.51"/><path d="M1066,1046L1021,1099L1209,1175Z" fill="#397dae" stroke="#397dae" stroke-width="1.51"/><path d="M1040,1323L1189,1305L1209,1175Z" fill="#2f6e98" stroke="#2f6e98" stroke-width="1.51"/><path d="M1021,1099L1040,1323L1209,1175Z" fill="#3876a3" stroke="#3876a3" stroke-width="1.51"/><path d="M1054,112L1130,161L1207,85Z" fill="#98b7d7" stroke="#98b7d7" stroke-width="1.51"/><path d="M1045,574L1126,756L1143,573Z" fill="#5b9dc8" stroke="#5b9dc8" stroke-width="1.51"/><path d="M1139,836L1057,892L1183,962Z" fill="#3d89be" stroke="#3d89be" stroke-width="1.51"/><path d="M1042,520L1143,573L1155,443Z" fill="#6aa4cc" stroke="#6aa4cc" stroke-width="1.51"/><path d="M1057,892L1066,1046L1183,962Z" fill="#3c85ba" stroke="#3c85ba" stroke-width="1.51"/><path d="M1045,574L1067,773L1126,756Z" fill="#539ac6" stroke="#539ac6" stroke-width="1.51"/><path d="M1130,161L1027,155L1138,300Z" fill="#92b4d5" stroke="#92b4d5" stroke-width="1.51"/><path d="M1027,155L1001,290L1138,300Z" fill="#90b3d5" stroke="#90b3d5" stroke-width="1.51"/><path d="M1138,300L1001,290L1155,443Z" fill="#82add1" stroke="#82add1" stroke-width="1.51"/><path d="M1001,290L1042,520L1155,443Z" fill="#7baad0" stroke="#7baad0" stroke-width="1.51"/><path d="M1126,756L1067,773L1139,836Z" fill="#4693c2" stroke="#4693c2" stroke-width="1.51"/><path d="M1137,-191L1028,-217L1141,-98Z" fill="#adc5df" stroke="#adc5df" stroke-width="1.51"/><path d="M1028,-217L1009,-67L1141,-98Z" fill="#aec6e0" stroke="#aec6e0" stroke-width="1.51"/><path d="M1042,520L1045,574L1143,573Z" fill="#68a3cb" stroke="#68a3cb" stroke-width="1.51"/><path d="M1067,773L1057,892L1139,836Z" fill="#458fc1" stroke="#458fc1" stroke-width="1.51"/><path d="M1054,112L1027,155L1130,161Z" fill="#9bb8d8" stroke="#9bb8d8" stroke-width="1.51"/><path d="M1021,1099L936,1128L1040,1323Z" fill="#427ca7" stroke="#427ca7" stroke-width="1.51"/><path d="M936,1128L852,1231L1040,1323Z" fill="#4679a3" stroke="#4679a3" stroke-width="1.51"/><path d="M1001,290L872,452L1042,520Z" fill="#82aed2" stroke="#82aed2" stroke-width="1.51"/><path d="M1009,-67L921,71L1054,112Z" fill="#a8c0dd" stroke="#a8c0dd" stroke-width="1.51"/><path d="M1057,892L878,967L1066,1046Z" fill="#4789bc" stroke="#4789bc" stroke-width="1.51"/><path d="M878,967L1021,1099L1066,1046Z" fill="#4786b7" stroke="#4786b7" stroke-width="1.51"/><path d="M1045,574L940,562L1067,773Z" fill="#62a0ca" stroke="#62a0ca" stroke-width="1.51"/><path d="M940,562L858,746L1067,773Z" fill="#609fca" stroke="#609fca" stroke-width="1.51"/><path d="M858,746L896,832L1067,773Z" fill="#5899c7" stroke="#5899c7" stroke-width="1.51"/><path d="M896,832L1057,892L1067,773Z" fill="#4f93c3" stroke="#4f93c3" stroke-width="1.51"/><path d="M932,-77L1009,-67L1028,-217Z" fill="#b3c9e1" stroke="#b3c9e1" stroke-width="1.51"/><path d="M852,1231L802,1247L1040,1323Z" fill="#48779e" stroke="#48779e" stroke-width="1.51"/><path d="M896,832L878,967L1057,892Z" fill="#5190c2" stroke="#5190c2" stroke-width="1.51"/><path d="M872,452L940,562L1042,520Z" fill="#79abd0" stroke="#79abd0" stroke-width="1.51"/><path d="M921,71L1027,155L1054,112Z" fill="#a3bcda" stroke="#a3bcda" stroke-width="1.51"/><path d="M863,312L872,452L1001,290Z" fill="#90b4d6" stroke="#90b4d6" stroke-width="1.51"/><path d="M878,967L936,1128L1021,1099Z" fill="#4b86b5" stroke="#4b86b5" stroke-width="1.51"/><path d="M873,237L1001,290L1027,155Z" fill="#9ab8d8" stroke="#9ab8d8" stroke-width="1.51"/><path d="M1042,520L940,562L1045,574Z" fill="#6fa6ce" stroke="#6fa6ce" stroke-width="1.51"/><path d="M932,-77L921,71L1009,-67Z" fill="#b0c5df" stroke="#b0c5df" stroke-width="1.51"/><path d="M842,-186L932,-77L1028,-217Z" fill="#b9cce3" stroke="#b9cce3" stroke-width="1.51"/><path d="M921,71L873,237L1027,155Z" fill="#a4bcdb" stroke="#a4bcdb" stroke-width="1.51"/><path d="M873,237L863,312L1001,290Z" fill="#98b7d8" stroke="#98b7d8" stroke-width="1.51"/><path d="M778,158L873,237L921,71Z" fill="#aabfdc" stroke="#aabfdc" stroke-width="1.51"/><path d="M765,38L921,71L932,-77Z" fill="#b3c6e0" stroke="#b3c6e0" stroke-width="1.51"/><path d="M768,-107L765,38L932,-77Z" fill="#bccbe3" stroke="#bccbe3" stroke-width="1.51"/><path d="M878,967L785,1144L936,1128Z" fill="#5287b6" stroke="#5287b6" stroke-width="1.51"/><path d="M785,1144L852,1231L936,1128Z" fill="#5181ad" stroke="#5181ad" stroke-width="1.51"/><path d="M872,452L736,584L940,562Z" fill="#7fadd1" stroke="#7fadd1" stroke-width="1.51"/><path d="M736,584L858,746L940,562Z" fill="#73a7ce" stroke="#73a7ce" stroke-width="1.51"/><path d="M842,-186L768,-107L932,-77Z" fill="#bdcde4" stroke="#bdcde4" stroke-width="1.51"/><path d="M765,38L778,158L921,71Z" fill="#b2c4df" stroke="#b2c4df" stroke-width="1.51"/><path d="M736,584L715,694L858,746Z" fill="#74a7ce" stroke="#74a7ce" stroke-width="1.51"/><path d="M751,446L736,584L872,452Z" fill="#89b1d4" stroke="#89b1d4" stroke-width="1.51"/><path d="M863,312L751,446L872,452Z" fill="#91b4d5" stroke="#91b4d5" stroke-width="1.51"/><path d="M749,973L785,1144L878,967Z" fill="#5a8cbb" stroke="#5a8cbb" stroke-width="1.51"/><path d="M733,827L749,973L878,967Z" fill="#5f93c4" stroke="#5f93c4" stroke-width="1.51"/><path d="M733,827L878,967L896,832Z" fill="#5d95c5" stroke="#5d95c5" stroke-width="1.51"/><path d="M858,746L733,827L896,832Z" fill="#629cc8" stroke="#629cc8" stroke-width="1.51"/><path d="M723,350L751,446L863,312Z" fill="#99b7d8" stroke="#99b7d8" stroke-width="1.51"/><path d="M723,350L863,312L873,237Z" fill="#9db9d9" stroke="#9db9d9" stroke-width="1.51"/><path d="M778,158L723,350L873,237Z" fill="#a5bddb" stroke="#a5bddb" stroke-width="1.51"/><path d="M785,1144L802,1247L852,1231Z" fill="#5380a8" stroke="#5380a8" stroke-width="1.51"/><path d="M715,694L733,827L858,746Z" fill="#6aa2cb" stroke="#6aa2cb" stroke-width="1.51"/><path d="M656,245L723,350L778,158Z" fill="#aabfdd" stroke="#aabfdd" stroke-width="1.51"/><path d="M764,-204L768,-107L842,-186Z" fill="#c4d1e6" stroke="#c4d1e6" stroke-width="1.51"/><path d="M609,1014L620,1137L749,973Z" fill="#6790bd" stroke="#6790bd" stroke-width="1.51"/><path d="M632,-70L765,38L768,-107Z" fill="#c3cfe5" stroke="#c3cfe5" stroke-width="1.51"/><path d="M749,973L620,1137L785,1144Z" fill="#608cb8" stroke="#608cb8" stroke-width="1.51"/><path d="M785,1144L620,1137L802,1247Z" fill="#5c85ae" stroke="#5c85ae" stroke-width="1.51"/><path d="M620,1137L573,1272L802,1247Z" fill="#6083a9" stroke="#6083a9" stroke-width="1.51"/><path d="M-21,-229L204,-164L436,-198Z" fill="#eae6f2" stroke="#eae6f2" stroke-width="1.51"/><path d="M632,-70L662,49L765,38Z" fill="#c2cde4" stroke="#c2cde4" stroke-width="1.51"/><path d="M765,38L662,49L778,158Z" fill="#b9c7e1" stroke="#b9c7e1" stroke-width="1.51"/><path d="M764,-204L660,-239L768,-107Z" fill="#c9d4e8" stroke="#c9d4e8" stroke-width="1.51"/><path d="M662,49L656,245L778,158Z" fill="#b6c4df" stroke="#b6c4df" stroke-width="1.51"/><path d="M733,827L585,861L749,973Z" fill="#6b99c8" stroke="#6b99c8" stroke-width="1.51"/><path d="M608,573L736,584L751,446Z" fill="#8bb2d4" stroke="#8bb2d4" stroke-width="1.51"/><path d="M660,-239L632,-70L768,-107Z" fill="#cad4e8" stroke="#cad4e8" stroke-width="1.51"/><path d="M609,424L608,573L751,446Z" fill="#95b6d6" stroke="#95b6d6" stroke-width="1.51"/><path d="M715,694L614,787L733,827Z" fill="#71a3cc" stroke="#71a3cc" stroke-width="1.51"/><path d="M585,861L609,1014L749,973Z" fill="#6b96c5" stroke="#6b96c5" stroke-width="1.51"/><path d="M723,350L609,424L751,446Z" fill="#9bb8d8" stroke="#9bb8d8" stroke-width="1.51"/><path d="M608,573L715,694L736,584Z" fill="#82add1" stroke="#82add1" stroke-width="1.51"/><path d="M530,155L656,245L662,49Z" fill="#bdc8e1" stroke="#bdc8e1" stroke-width="1.51"/><path d="M614,787L585,861L733,827Z" fill="#72a0ca" stroke="#72a0ca" stroke-width="1.51"/><path d="M656,245L594,355L723,350Z" fill="#a8bedc" stroke="#a8bedc" stroke-width="1.51"/><path d="M594,355L609,424L723,350Z" fill="#a3bbdb" stroke="#a3bbdb" stroke-width="1.51"/><path d="M538,738L614,787L715,694Z" fill="#79a7ce" stroke="#79a7ce" stroke-width="1.51"/><path d="M608,573L538,738L715,694Z" fill="#81acd0" stroke="#81acd0" stroke-width="1.51"/><path d="M498,634L538,738L608,573Z" fill="#89b0d3" stroke="#89b0d3" stroke-width="1.51"/><path d="M515,291L594,355L656,245Z" fill="#b0c1dd" stroke="#b0c1dd" stroke-width="1.51"/><path d="M465,-106L632,-70L660,-239Z" fill="#d2d7ea" stroke="#d2d7ea" stroke-width="1.51"/><path d="M436,-198L465,-106L660,-239Z" fill="#d8dbeb" stroke="#d8dbeb" stroke-width="1.51"/><path d="M632,-70L520,59L662,49Z" fill="#c7cfe5" stroke="#c7cfe5" stroke-width="1.51"/><path d="M520,59L530,155L662,49Z" fill="#c5cce4" stroke="#c5cce4" stroke-width="1.51"/><path d="M530,155L515,291L656,245Z" fill="#b8c5df" stroke="#b8c5df" stroke-width="1.51"/><path d="M487,491L608,573L609,424Z" fill="#9ab8d8" stroke="#9ab8d8" stroke-width="1.51"/><path d="M585,861L524,862L609,1014Z" fill="#739ac9" stroke="#739ac9" stroke-width="1.51"/><path d="M609,1014L476,1100L620,1137Z" fill="#6d90bb" stroke="#6d90bb" stroke-width="1.51"/><path d="M465,-106L520,59L632,-70Z" fill="#cfd4e8" stroke="#cfd4e8" stroke-width="1.51"/><path d="M524,862L456,993L609,1014Z" fill="#7499c7" stroke="#7499c7" stroke-width="1.51"/><path d="M476,1100L573,1272L620,1137Z" fill="#6a8bb2" stroke="#6a8bb2" stroke-width="1.51"/><path d="M524,862L585,861L614,787Z" fill="#77a1cc" stroke="#77a1cc" stroke-width="1.51"/><path d="M538,738L524,862L614,787Z" fill="#7aa4ce" stroke="#7aa4ce" stroke-width="1.51"/><path d="M487,491L498,634L608,573Z" fill="#94b5d6" stroke="#94b5d6" stroke-width="1.51"/><path d="M594,355L487,491L609,424Z" fill="#a3bbda" stroke="#a3bbda" stroke-width="1.51"/><path d="M456,993L476,1100L609,1014Z" fill="#7394c0" stroke="#7394c0" stroke-width="1.51"/><path d="M476,1100L464,1305L573,1272Z" fill="#6b87ab" stroke="#6b87ab" stroke-width="1.51"/><path d="M515,291L487,491L594,355Z" fill="#aabfdd" stroke="#aabfdd" stroke-width="1.51"/><path d="M401,325L487,491L515,291Z" fill="#b0c1dd" stroke="#b0c1dd" stroke-width="1.51"/><path d="M204,-164L325,-155L436,-198Z" fill="#e4e1ef" stroke="#e4e1ef" stroke-width="1.51"/><path d="M338,1152L464,1305L476,1100Z" fill="#738db2" stroke="#738db2" stroke-width="1.51"/><path d="M324,235L401,325L515,291Z" fill="#bdc7e1" stroke="#bdc7e1" stroke-width="1.51"/><path d="M465,-106L397,-68L520,59Z" fill="#d5d7e9" stroke="#d5d7e9" stroke-width="1.51"/><path d="M324,235L515,291L530,155Z" fill="#c0c9e2" stroke="#c0c9e2" stroke-width="1.51"/><path d="M520,59L361,108L530,155Z" fill="#cacee5" stroke="#cacee5" stroke-width="1.51"/><path d="M372,717L524,862L538,738Z" fill="#82aad0" stroke="#82aad0" stroke-width="1.51"/><path d="M498,634L372,717L538,738Z" fill="#89afd2" stroke="#89afd2" stroke-width="1.51"/><path d="M338,1152L327,1235L464,1305Z" fill="#748bad" stroke="#748bad" stroke-width="1.51"/><path d="M361,108L324,235L530,155Z" fill="#cacee4" stroke="#cacee4" stroke-width="1.51"/><path d="M397,-68L361,108L520,59Z" fill="#d2d4e7" stroke="#d2d4e7" stroke-width="1.51"/><path d="M312,925L456,993L524,862Z" fill="#7d9eca" stroke="#7d9eca" stroke-width="1.51"/><path d="M372,717L312,925L524,862Z" fill="#84a7cf" stroke="#84a7cf" stroke-width="1.51"/><path d="M487,491L328,560L498,634Z" fill="#9bb8d8" stroke="#9bb8d8" stroke-width="1.51"/><path d="M312,925L364,991L456,993Z" fill="#7f9cc9" stroke="#7f9cc9" stroke-width="1.51"/><path d="M401,325L348,488L487,491Z" fill="#acc0dd" stroke="#acc0dd" stroke-width="1.51"/><path d="M348,488L328,560L487,491Z" fill="#a5bddb" stroke="#a5bddb" stroke-width="1.51"/><path d="M328,560L372,717L498,634Z" fill="#96b5d6" stroke="#96b5d6" stroke-width="1.51"/><path d="M327,1235L198,1311L464,1305Z" fill="#7487a6" stroke="#7487a6" stroke-width="1.51"/><path d="M456,993L364,991L476,1100Z" fill="#7998c2" stroke="#7998c2" stroke-width="1.51"/><path d="M364,991L338,1152L476,1100Z" fill="#7a95be" stroke="#7a95be" stroke-width="1.51"/><path d="M325,-155L397,-68L436,-198Z" fill="#dfdeed" stroke="#dfdeed" stroke-width="1.51"/><path d="M436,-198L397,-68L465,-106Z" fill="#dbdbec" stroke="#dbdbec" stroke-width="1.51"/><path d="M259,765L312,925L372,717Z" fill="#8cacd2" stroke="#8cacd2" stroke-width="1.51"/><path d="M-21,-229L119,-164L204,-164Z" fill="#efe9f3" stroke="#efe9f3" stroke-width="1.51"/><path d="M259,765L265,896L312,925Z" fill="#8aa8d0" stroke="#8aa8d0" stroke-width="1.51"/><path d="M266,1031L338,1152L364,991Z" fill="#7f99c1" stroke="#7f99c1" stroke-width="1.51"/><path d="M328,560L251,608L372,717Z" fill="#9cb9d8" stroke="#9cb9d8" stroke-width="1.51"/><path d="M236,17L361,108L397,-68Z" fill="#d9d8ea" stroke="#d9d8ea" stroke-width="1.51"/><path d="M220,315L348,488L401,325Z" fill="#b8c6e0" stroke="#b8c6e0" stroke-width="1.51"/><path d="M324,235L220,315L401,325Z" fill="#c2cbe2" stroke="#c2cbe2" stroke-width="1.51"/><path d="M220,315L262,501L348,488Z" fill="#b4c4df" stroke="#b4c4df" stroke-width="1.51"/><path d="M325,-155L236,17L397,-68Z" fill="#dfddec" stroke="#dfddec" stroke-width="1.51"/><path d="M251,608L259,765L372,717Z" fill="#95b5d6" stroke="#95b5d6" stroke-width="1.51"/><path d="M182,-40L236,17L325,-155Z" fill="#e2dfee" stroke="#e2dfee" stroke-width="1.51"/><path d="M193,236L324,235L361,108Z" fill="#cdd0e6" stroke="#cdd0e6" stroke-width="1.51"/><path d="M312,925L266,1031L364,991Z" fill="#839ec8" stroke="#839ec8" stroke-width="1.51"/><path d="M236,17L193,236L361,108Z" fill="#d5d5e8" stroke="#d5d5e8" stroke-width="1.51"/><path d="M204,-164L182,-40L325,-155Z" fill="#e6e2f0" stroke="#e6e2f0" stroke-width="1.51"/><path d="M262,501L328,560L348,488Z" fill="#a9bfdc" stroke="#a9bfdc" stroke-width="1.51"/><path d="M166,1190L327,1235L338,1152Z" fill="#7c91b4" stroke="#7c91b4" stroke-width="1.51"/><path d="M266,1031L166,1190L338,1152Z" fill="#8097bd" stroke="#8097bd" stroke-width="1.51"/><path d="M262,501L251,608L328,560Z" fill="#a6bedc" stroke="#a6bedc" stroke-width="1.51"/><path d="M193,236L220,315L324,235Z" fill="#c8cee5" stroke="#c8cee5" stroke-width="1.51"/><path d="M166,1190L198,1311L327,1235Z" fill="#7a8ead" stroke="#7a8ead" stroke-width="1.51"/><path d="M265,896L266,1031L312,925Z" fill="#85a1cc" stroke="#85a1cc" stroke-width="1.51"/><path d="M103,53L80,168L193,236Z" fill="#d9d8ea" stroke="#d9d8ea" stroke-width="1.51"/><path d="M103,53L193,236L236,17Z" fill="#dad9ea" stroke="#dad9ea" stroke-width="1.51"/><path d="M251,608L59,632L259,765Z" fill="#9dbbd9" stroke="#9dbbd9" stroke-width="1.51"/><path d="M59,632L40,793L259,765Z" fill="#99b9d8" stroke="#99b9d8" stroke-width="1.51"/><path d="M40,793L58,893L259,765Z" fill="#95b2d5" stroke="#95b2d5" stroke-width="1.51"/><path d="M118,492L251,608L262,501Z" fill="#acc2dd" stroke="#acc2dd" stroke-width="1.51"/><path d="M220,315L118,492L262,501Z" fill="#b7c7e1" stroke="#b7c7e1" stroke-width="1.51"/><path d="M259,765L58,893L265,896Z" fill="#8facd2" stroke="#8facd2" stroke-width="1.51"/><path d="M58,893L99,1059L265,896Z" fill="#8ca6cf" stroke="#8ca6cf" stroke-width="1.51"/><path d="M265,896L99,1059L266,1031Z" fill="#87a0c9" stroke="#87a0c9" stroke-width="1.51"/><path d="M99,1059L166,1190L266,1031Z" fill="#859cc1" stroke="#859cc1" stroke-width="1.51"/><path d="M74,345L118,492L220,315Z" fill="#c0cce3" stroke="#c0cce3" stroke-width="1.51"/><path d="M118,492L59,632L251,608Z" fill="#aac2dd" stroke="#aac2dd" stroke-width="1.51"/><path d="M119,-102L182,-40L204,-164Z" fill="#e8e4f0" stroke="#e8e4f0" stroke-width="1.51"/><path d="M182,-40L103,53L236,17Z" fill="#e1deed" stroke="#e1deed" stroke-width="1.51"/><path d="M193,236L74,345L220,315Z" fill="#c8d0e6" stroke="#c8d0e6" stroke-width="1.51"/><path d="M166,1190L44,1318L198,1311Z" fill="#7d8fac" stroke="#7d8fac" stroke-width="1.51"/><path d="M119,-164L119,-102L204,-164Z" fill="#ebe6f1" stroke="#ebe6f1" stroke-width="1.51"/><path d="M80,168L74,345L193,236Z" fill="#cfd4e8" stroke="#cfd4e8" stroke-width="1.51"/><path d="M99,1059L38,1122L166,1190Z" fill="#879dc0" stroke="#879dc0" stroke-width="1.51"/><path d="M119,-102L103,53L182,-40Z" fill="#e6e2f0" stroke="#e6e2f0" stroke-width="1.51"/><path d="M38,1122L44,1318L166,1190Z" fill="#8496b5" stroke="#8496b5" stroke-width="1.51"/><path d="M38,1122L-44,1240L44,1318Z" fill="#8596b4" stroke="#8596b4" stroke-width="1.51"/><path d="M-10,737L40,793L59,632Z" fill="#9fbddb" stroke="#9fbddb" stroke-width="1.51"/><path d="M-7,200L74,345L80,168Z" fill="#d4d7e9" stroke="#d4d7e9" stroke-width="1.51"/><path d="M58,893L-37,970L99,1059Z" fill="#90a8ce" stroke="#90a8ce" stroke-width="1.51"/><path d="M-24,109L80,168L103,53Z" fill="#dfddec" stroke="#dfddec" stroke-width="1.51"/><path d="M74,345L-38,457L118,492Z" fill="#bfcde4" stroke="#bfcde4" stroke-width="1.51"/><path d="M-38,457L59,632L118,492Z" fill="#b4c8e1" stroke="#b4c8e1" stroke-width="1.51"/><path d="M-21,-229L-17,-108L119,-164Z" fill="#f1ebf5" stroke="#f1ebf5" stroke-width="1.51"/><path d="M119,-164L-17,-108L119,-102Z" fill="#ede8f3" stroke="#ede8f3" stroke-width="1.51"/><path d="M-17,-108L103,53L119,-102Z" fill="#eae6f1" stroke="#eae6f1" stroke-width="1.51"/><path d="M-17,-108L-24,109L103,53Z" fill="#e7e3f0" stroke="#e7e3f0" stroke-width="1.51"/><path d="M-44,356L-38,457L74,345Z" fill="#c6d1e6" stroke="#c6d1e6" stroke-width="1.51"/><path d="M-37,970L38,1122L99,1059Z" fill="#8da3c8" stroke="#8da3c8" stroke-width="1.51"/><path d="M-39,652L-10,737L59,632Z" fill="#a5c0dc" stroke="#a5c0dc" stroke-width="1.51"/><path d="M-38,457L-39,652L59,632Z" fill="#b0c6e0" stroke="#b0c6e0" stroke-width="1.51"/><path d="M-7,200L-44,356L74,345Z" fill="#cfd5e8" stroke="#cfd5e8" stroke-width="1.51"/><path d="M-24,109L-7,200L80,168Z" fill="#dddcec" stroke="#dddcec" stroke-width="1.51"/><path d="M-37,970L-62,1121L38,1122Z" fill="#8ea4c7" stroke="#8ea4c7" stroke-width="1.51"/><path d="M-44,1240L-232,1243L44,1318Z" fill="#8595af" stroke="#8595af" stroke-width="1.51"/><path d="M-62,1121L-44,1240L38,1122Z" fill="#8a9ebe" stroke="#8a9ebe" stroke-width="1.51"/><path d="M40,793L-86,916L58,893Z" fill="#96b1d5" stroke="#96b1d5" stroke-width="1.51"/><path d="M-86,916L-37,970L58,893Z" fill="#94add3" stroke="#94add3" stroke-width="1.51"/><path d="M-10,737L-86,916L40,793Z" fill="#9ab6d7" stroke="#9ab6d7" stroke-width="1.51"/><path d="M-183,556L-39,652L-38,457Z" fill="#b5cae2" stroke="#b5cae2" stroke-width="1.51"/><path d="M-201,104L-24,109L-17,-108Z" fill="#e9e5f1" stroke="#e9e5f1" stroke-width="1.51"/><path d="M-227,-117L-201,104L-17,-108Z" fill="#f0eaf4" stroke="#f0eaf4" stroke-width="1.51"/><path d="M-21,-229L-214,-218L-17,-108Z" fill="#f6eff7" stroke="#f6eff7" stroke-width="1.51"/><path d="M-214,-218L-227,-117L-17,-108Z" fill="#f6eff7" stroke="#f6eff7" stroke-width="1.51"/><path d="M-186,857L-86,916L-10,737Z" fill="#9bb6d8" stroke="#9bb6d8" stroke-width="1.51"/><path d="M-24,109L-172,176L-7,200Z" fill="#dfdded" stroke="#dfdded" stroke-width="1.51"/><path d="M-172,176L-44,356L-7,200Z" fill="#d7d9eb" stroke="#d7d9eb" stroke-width="1.51"/><path d="M-180,989L-62,1121L-37,970Z" fill="#92a8cc" stroke="#92a8cc" stroke-width="1.51"/><path d="M-39,652L-225,694L-10,737Z" fill="#a6c1dd" stroke="#a6c1dd" stroke-width="1.51"/><path d="M-225,694L-186,857L-10,737Z" fill="#a1bedb" stroke="#a1bedb" stroke-width="1.51"/><path d="M-172,176L-172,378L-44,356Z" fill="#d2d8ea" stroke="#d2d8ea" stroke-width="1.51"/><path d="M-44,356L-172,378L-38,457Z" fill="#c7d2e6" stroke="#c7d2e6" stroke-width="1.51"/><path d="M-201,104L-172,176L-24,109Z" fill="#e4e1ee" stroke="#e4e1ee" stroke-width="1.51"/><path d="M-180,989L-185,1115L-62,1121Z" fill="#92a6c8" stroke="#92a6c8" stroke-width="1.51"/><path d="M-62,1121L-185,1115L-44,1240Z" fill="#8da0bf" stroke="#8da0bf" stroke-width="1.51"/><path d="M-86,916L-180,989L-37,970Z" fill="#95acd2" stroke="#95acd2" stroke-width="1.51"/><path d="M-185,1115L-232,1243L-44,1240Z" fill="#8c9dba" stroke="#8c9dba" stroke-width="1.51"/><path d="M-172,378L-183,556L-38,457Z" fill="#c1d0e6" stroke="#c1d0e6" stroke-width="1.51"/><path d="M-183,556L-225,694L-39,652Z" fill="#aec6e0" stroke="#aec6e0" stroke-width="1.51"/><path d="M-235,522L-183,556L-172,378Z" fill="#c0d0e6" stroke="#c0d0e6" stroke-width="1.51"/><path d="M-186,857L-180,989L-86,916Z" fill="#98b0d5" stroke="#98b0d5" stroke-width="1.51"/><path d="M-235,522L-225,694L-183,556Z" fill="#b5cbe2" stroke="#b5cbe2" stroke-width="1.51"/><path d="M-201,104L-235,522L-172,378Z" fill="#d2d8ea" stroke="#d2d8ea" stroke-width="1.51"/><path d="M-201,104L-172,378L-172,176Z" fill="#dddeed" stroke="#dddeed" stroke-width="1.51"/><path d="M-186,857L-225,694L-180,989Z" fill="#9eb8d9" stroke="#9eb8d9" stroke-width="1.51"/><path d="M-225,694L-232,1243L-180,989Z" fill="#98aed2" stroke="#98aed2" stroke-width="1.51"/><path d="M-232,1243L-185,1115L-180,989Z" fill="#92a5c5" stroke="#92a5c5" stroke-width="1.51"/><path d="M-227,-117L-235,522L-201,104Z" fill="#e3e1ef" stroke="#e3e1ef" stroke-width="1.51"/><path d="M-235,522L-232,1243L-225,694Z" fill="#a0bbda" stroke="#a0bbda" stroke-width="1.51"/></svg>